<svg xmlns="http://www.w3.org/2000/svg" viewBox="0 0 978 320" width="978" height="320"><g transform="translate(60,60)"><rect x="0" y="0" width="34" height="200" fill="#FFFFFF"/><rect x="146" y="0" width="34" height="200" fill="#FFFFFF"/><rect x="34" y="83.0" width="112" height="34" fill="#FFFFFF"/><rect x="226" y="0" width="34" height="200" fill="#FFFFFF"/><polygon points="260,83.0 260,117.0 398,-2 367.4,-2" fill="#FFFFFF"/><polygon points="260,83.0 260,117.0 367.4,202 398,202" fill="#FFFFFF"/><rect x="452" y="0" width="34" height="200" fill="#FFFFFF"/><rect x="452" y="0" width="180" height="34" fill="#FFFFFF"/><rect x="452" y="83.0" width="140.4" height="34" fill="#FFFFFF"/><rect x="452" y="166" width="180" height="34" fill="#FFFFFF"/><polygon points="678,-2 712,-2 858,202 824,202" fill="#FFFFFF"/><polygon points="824,-2 858,-2 825.88,44.0 791.88,44.0" fill="#E31B23"/><polygon points="791.88,44.0 825.88,44.0 712,202 678,202" fill="#FFFFFF"/></g></svg>
